<?xml version="1.0" encoding="utf-8"?>
<!-- Generator: Adobe Illustrator 22.1.0, SVG Export Plug-In . SVG Version: 6.00 Build 0)  -->
<svg version="1.1" id="Capa_1" xmlns="http://www.w3.org/2000/svg" xmlns:xlink="http://www.w3.org/1999/xlink" x="0px" y="0px"
	 viewBox="0 0 16 16" style="enable-background:new 0 0 16 16;" xml:space="preserve">
<g>
	<path d="M15.7,2.8l-5.2-0.6l3.7,9.2c0.3,0.8-0.1,1.6-0.8,1.9l-5,2l5.8,0.7c0,0,0,0,0.1,0c0.1,0,0.2,0,0.3-0.1
		c0.1-0.1,0.2-0.2,0.2-0.3l1.4-12.2C16.2,3,16,2.8,15.7,2.8z"/>
	<path d="M13.3,11.8L8.7,0.3c0-0.1-0.1-0.2-0.3-0.3C8.3,0,8.2,0,8,0L0.2,3.2c-0.3,0.1-0.4,0.4-0.3,0.6l4.6,11.4
		c0,0.1,0.1,0.2,0.3,0.3c0.1,0,0.1,0,0.2,0c0.1,0,0.1,0,0.2,0L6.4,15c0,0,0,0,0,0l6.6-2.6C13.2,12.3,13.4,12,13.3,11.8z"/>
</g>
</svg>
