<svg width="444" height="156" viewBox="0 0 444 156" fill="none" xmlns="http://www.w3.org/2000/svg">
<path d="M120.832 41.0961L147.88 71.0001H138.472L113.776 43.3641V71.0001H106.132V11.78H113.776V39.248L138.556 11.78H147.88L120.832 41.0961Z" fill="white"/>
<path d="M182.565 11.024C188.053 11.024 192.981 12.312 197.349 14.888C201.773 17.464 205.245 21.076 207.765 25.724C210.285 30.316 211.545 35.5241 211.545 41.3481C211.545 47.1721 210.285 52.4081 207.765 57.0561C205.245 61.6481 201.773 65.2321 197.349 67.8081C192.981 70.3841 188.053 71.6721 182.565 71.6721C177.077 71.6721 172.093 70.3841 167.613 67.8081C163.189 65.2321 159.717 61.6481 157.197 57.0561C154.677 52.4081 153.417 47.1721 153.417 41.3481C153.417 35.5241 154.677 30.316 157.197 25.724C159.717 21.076 163.189 17.464 167.613 14.888C172.093 12.312 177.077 11.024 182.565 11.024ZM182.565 18.1641C178.477 18.1641 174.809 19.116 171.561 21.02C168.369 22.868 165.849 25.556 164.001 29.0841C162.209 32.5561 161.313 36.6441 161.313 41.3481C161.313 45.9961 162.209 50.0841 164.001 53.6121C165.849 57.1401 168.369 59.856 171.561 61.76C174.809 63.608 178.477 64.5321 182.565 64.5321C186.597 64.5321 190.209 63.58 193.401 61.676C196.649 59.772 199.169 57.0841 200.961 53.6121C202.809 50.0841 203.733 45.9961 203.733 41.3481C203.733 36.6441 202.809 32.5561 200.961 29.0841C199.169 25.556 196.649 22.868 193.401 21.02C190.209 19.116 186.597 18.1641 182.565 18.1641Z" fill="white"/>
<path d="M253.294 71.0001L237.838 46.8081H229.522V71.0001H221.878V11.78H241.366C248.086 11.78 253.126 13.404 256.486 16.6521C259.846 19.844 261.526 24.1 261.526 29.42C261.526 34.236 260.182 38.1281 257.494 41.0961C254.806 44.0081 250.914 45.8281 245.818 46.5561L261.946 71.0001H253.294ZM229.522 41.2641H240.694C249.374 41.2641 253.714 37.4561 253.714 29.8401C253.714 22.224 249.374 18.416 240.694 18.416H229.522V41.2641Z" fill="white"/>
<path d="M297.983 11.024C303.471 11.024 308.399 12.312 312.767 14.888C317.191 17.464 320.663 21.076 323.183 25.724C325.703 30.316 326.963 35.5241 326.963 41.3481C326.963 47.1721 325.703 52.4081 323.183 57.0561C320.663 61.6481 317.191 65.2321 312.767 67.8081C308.399 70.3841 303.471 71.6721 297.983 71.6721C292.495 71.6721 287.511 70.3841 283.031 67.8081C278.607 65.2321 275.135 61.6481 272.615 57.0561C270.095 52.4081 268.835 47.1721 268.835 41.3481C268.835 35.5241 270.095 30.316 272.615 25.724C275.135 21.076 278.607 17.464 283.031 14.888C287.511 12.312 292.495 11.024 297.983 11.024ZM297.983 18.1641C293.895 18.1641 290.227 19.116 286.979 21.02C283.787 22.868 281.267 25.556 279.419 29.0841C277.627 32.5561 276.731 36.6441 276.731 41.3481C276.731 45.9961 277.627 50.0841 279.419 53.6121C281.267 57.1401 283.787 59.856 286.979 61.76C290.227 63.608 293.895 64.5321 297.983 64.5321C302.015 64.5321 305.627 63.58 308.819 61.676C312.067 59.772 314.587 57.0841 316.379 53.6121C318.227 50.0841 319.151 45.9961 319.151 41.3481C319.151 36.6441 318.227 32.5561 316.379 29.0841C314.587 25.556 312.067 22.868 308.819 21.02C305.627 19.116 302.015 18.1641 297.983 18.1641Z" fill="white"/>
<path d="M383.328 71.0001H375.684L344.94 24.212V71.0001H337.296V11.78H344.94L375.684 58.6521V11.78H383.328V71.0001Z" fill="white"/>
<path d="M430.312 57.3081H404.272L399.316 71.0001H391.084L413.008 12.872H421.66L443.5 71.0001H435.268L430.312 57.3081ZM428.128 51.344L417.292 21.44L406.456 51.344H428.128Z" fill="white"/>
<path d="M132.34 95.1921C139.564 95.1921 145.528 96.9841 150.232 100.568C154.936 104.096 158.184 108.94 159.976 115.1H151.912C150.4 111.18 147.964 108.072 144.604 105.776C141.244 103.424 137.128 102.248 132.256 102.248C128.392 102.248 124.92 103.2 121.84 105.104C118.816 106.952 116.408 109.64 114.616 113.168C112.88 116.64 112.012 120.728 112.012 125.432C112.012 130.08 112.88 134.14 114.616 137.612C116.408 141.084 118.816 143.772 121.84 145.676C124.92 147.524 128.392 148.448 132.256 148.448C137.128 148.448 141.244 147.3 144.604 145.004C147.964 142.652 150.4 139.516 151.912 135.596H159.976C158.184 141.756 154.936 146.628 150.232 150.212C145.528 153.74 139.564 155.504 132.34 155.504C126.796 155.504 121.896 154.244 117.64 151.724C113.384 149.148 110.052 145.592 107.644 141.056C105.292 136.464 104.116 131.256 104.116 125.432C104.116 119.552 105.292 114.316 107.644 109.724C110.052 105.132 113.384 101.576 117.64 99.0561C121.896 96.4801 126.796 95.1921 132.34 95.1921ZM143.68 83.7681L132.088 90.7401L120.412 83.7681V78.3921L132.088 85.4481L143.68 78.3921V83.7681Z" fill="white"/>
<path d="M177.842 101.996V122.24H200.354V128.12H177.842V148.784H202.874V155H170.198V95.7801H202.874V101.996H177.842Z" fill="white"/>
<path d="M250.155 139.628C250.155 142.428 249.483 145.032 248.139 147.44C246.795 149.848 244.751 151.808 242.007 153.32C239.263 154.832 235.875 155.588 231.843 155.588C227.923 155.588 224.423 154.888 221.343 153.488C218.319 152.032 215.883 150.072 214.035 147.608C212.243 145.088 211.207 142.232 210.927 139.04H219.075C219.243 140.72 219.803 142.372 220.755 143.996C221.763 145.564 223.163 146.88 224.955 147.944C226.803 148.952 229.015 149.456 231.591 149.456C234.951 149.456 237.527 148.56 239.319 146.768C241.111 144.976 242.007 142.68 242.007 139.88C242.007 137.472 241.363 135.512 240.075 134C238.843 132.488 237.303 131.312 235.455 130.472C233.607 129.576 231.087 128.624 227.895 127.616C224.143 126.384 221.119 125.236 218.823 124.172C216.583 123.052 214.651 121.4 213.027 119.216C211.459 117.032 210.675 114.148 210.675 110.564C210.675 107.484 211.403 104.768 212.859 102.416C214.371 100.064 216.499 98.244 219.243 96.956C222.043 95.668 225.319 95.024 229.071 95.024C234.895 95.024 239.515 96.4521 242.931 99.3081C246.347 102.108 248.335 105.692 248.895 110.06H240.663C240.215 107.708 239.011 105.636 237.051 103.844C235.091 102.052 232.431 101.156 229.071 101.156C225.991 101.156 223.527 101.968 221.679 103.592C219.831 105.16 218.907 107.4 218.907 110.312C218.907 112.608 219.495 114.484 220.671 115.94C221.903 117.34 223.415 118.46 225.207 119.3C226.999 120.084 229.463 120.98 232.599 121.988C236.407 123.22 239.459 124.396 241.755 125.516C244.107 126.636 246.095 128.344 247.719 130.64C249.343 132.88 250.155 135.876 250.155 139.628Z" fill="white"/>
<path d="M275.133 125.096L302.181 155H292.773L268.077 127.364V155H260.433V95.7801H268.077V123.248L292.857 95.7801H302.181L275.133 125.096Z" fill="white"/>
<path d="M344.426 141.308H318.386L313.43 155H305.198L327.122 96.872H335.774L357.614 155H349.382L344.426 141.308ZM342.242 135.344L331.406 105.44L320.57 135.344H342.242ZM345.182 82.2561L327.29 92.0841V86.6241L345.182 76.04V82.2561Z" fill="white"/>
<path d="M73.093 36.5523C70.6331 38.3096 67.8219 39.364 64.6592 39.364C59.0367 39.364 56.2254 32.3347 60.0909 28.4686C62.1993 26.3598 65.0106 24.954 68.1733 24.6025C73.7958 23.8996 76.2557 16.8703 72.0388 12.6527C67.8219 8.43515 60.7937 10.5439 59.7395 16.5188C59.3881 19.682 57.9824 22.4937 55.874 24.6025C52.0085 28.4686 44.9803 25.6569 44.9803 20.0335C44.9803 16.8703 46.0345 14.0586 47.7916 11.5983C51.3057 6.67782 48.143 0 42.169 0C36.1951 0 33.0324 6.67782 36.5465 11.2469C38.3035 13.7071 39.3578 16.5188 39.3578 19.682C39.3578 25.3054 32.3296 28.1172 28.4641 24.251C26.3557 22.1423 24.95 19.3305 24.5986 16.5188C23.5444 10.5439 16.5162 8.08368 12.2993 12.3013C8.0824 16.5188 10.5423 23.5481 16.5162 24.6025C19.6789 24.954 22.4902 26.3598 24.5986 28.4686C28.4641 32.3347 25.6528 39.364 20.0303 39.364C16.8676 39.364 14.0563 38.3096 11.5965 36.5523C6.67676 33.0377 0 36.2008 0 42.1757C0 48.1506 6.67677 51.3138 11.2451 47.7992C13.7049 46.0418 16.5162 44.9874 19.6789 44.9874C25.3014 44.9874 28.1127 52.0167 24.2472 55.8828C22.1387 57.9916 19.3275 59.3975 16.1648 59.749C10.5423 60.4519 8.0824 67.4812 12.2993 71.6987C16.5162 75.9163 23.5444 73.8075 24.5986 67.8326C24.95 64.6695 26.3557 61.8577 28.4641 59.749C32.3296 55.8828 39.3578 58.6946 39.3578 64.318C39.3578 67.4812 38.3035 70.2929 36.5465 72.7531C33.0324 77.3222 36.1951 84 42.169 84C48.143 84 51.3057 77.3222 47.7916 72.7531C46.0345 70.2929 44.9803 67.4812 44.9803 64.318C44.9803 58.6946 52.0085 55.8828 55.874 59.749C57.9824 61.8577 59.3881 64.6695 59.7395 67.8326C60.4423 73.4561 67.4705 75.9163 71.6874 71.6987C75.9043 67.4812 73.4444 60.4519 67.8219 59.749C64.6592 59.3975 62.1993 57.9916 59.7395 55.8828C55.874 52.0167 58.6852 44.9874 64.3078 44.9874C67.4705 44.9874 70.2817 46.0418 72.7416 47.7992C77.3099 51.3138 83.9867 48.1506 83.9867 42.1757C84.3381 36.2008 77.6613 33.0377 73.093 36.5523ZM35.1409 51.6653C33.3838 51.6653 31.6268 50.2594 31.6268 48.1506C31.6268 46.0418 33.0324 44.636 35.1409 44.636C37.2493 44.636 38.655 46.0418 38.655 48.1506C38.655 50.2594 37.2493 51.6653 35.1409 51.6653ZM39.7092 40.4184C36.5465 40.4184 34.0866 37.9582 34.0866 34.795C34.0866 31.6318 36.5465 29.1715 39.7092 29.1715C42.8719 29.1715 45.3317 31.6318 45.3317 34.795C45.3317 37.9582 42.8719 40.4184 39.7092 40.4184ZM49.9 50.9623C47.4402 50.9623 45.3317 48.8536 45.3317 46.3933C45.3317 43.9331 47.4402 41.8243 49.9 41.8243C52.3599 41.8243 54.4683 43.9331 54.4683 46.3933C54.4683 48.8536 52.7113 50.9623 49.9 50.9623Z" fill="#CD2500"/>
</svg>
