<?xml version="1.0" encoding="iso-8859-1"?>
<!-- Generator: Adobe Illustrator 19.0.1, SVG Export Plug-In . SVG Version: 6.00 Build 0)  -->
<svg version="1.1" xmlns="http://www.w3.org/2000/svg" xmlns:xlink="http://www.w3.org/1999/xlink" x="0px" y="0px"
	 viewBox="0 0 700 300" style="enable-background:new 0 0 700 300;" xml:space="preserve">
<g id="Layer_6" style="opacity:0.1;">
</g>
<g id="artboard2">
</g>
<g id="artboard1">
</g>
<g id="Layer_5">
</g>
<g id="artboard3">
</g>
<g id="artboard4">
	<g>
		<g>
			<g>
				<path style="fill:#F15938;" d="M120.217,167.624c3.026,0.809,6.792,3.717,8.768,5.379l0.151,0.128l0.19-0.056
					c0.53-0.154,1.034-0.276,1.54-0.372l0.332-0.063l-0.032-0.336c-0.906-9.402-3.295-17.146-6.727-21.806l-0.046-0.052
					c-1.464-1.359-3.119-2.586-4.917-3.645l-0.417-0.246l-0.128,0.467c-0.92,3.355-3.945,12.154-12.154,21.368
					c-10.185,11.433-24.602,19.567-42.85,24.175l-0.483,0.122l0.257,0.427c1.604,2.67,3.268,4.708,5.394,6.611l0.148,0.132
					l0.192-0.05c3.378-0.88,20.998-5.876,36.225-17.844l0.187-0.147l-0.056-0.231c-0.533-2.193-0.499-4.131,0.101-5.759
					c1.866-5.064,9.078-8.904,13.453-8.377L120.217,167.624z"/>
				<path style="fill:#F15938;" d="M87.423,216c4.548,0,7.749,1.385,11.122,2.616c4.25,1.551,9.171,3.387,17.295,3.387
					c6.724-0.037,12.999-1.905,18.05-5.475c4.484-3.168,8.039-7.645,9.963-12.64c3.213-8.34,1.752-16.698-3.875-21.846
					c-8.824-7.89-13.687-6.003-21.026,3.644c-6.153,8.088-10.973,13.87-21.93,15.238c7.398-3.542,10.695-5.549,13.477-9.574
					l0.158-0.228l-0.164-0.224c-1.206-1.655-2.873-4.221-3.964-7.05l-0.199-0.516l-0.421,0.359
					c-8.691,7.423-19.744,13.591-32.852,18.331l-0.735,0.265l0.652,0.43c2.33,1.535,5.064,2.992,8.319,4.43
					c-13.9-0.267-19.499-9.893-24.089-18.02l-2.069-2.883c-2.925-4.541-7.001-8.043-11.182-8.726
					c-3.241-0.529-6.39,0.845-9.127,3.035c-5.624,5.146-7.118,15.05-3.898,23.407c1.948,5.056,5.375,9.422,9.909,12.625
					c5.036,3.558,11.245,5.458,17.959,5.495c8.123,0,12.717-1.913,16.939-3.464c3.349-1.231,6.13-2.616,10.678-2.616H87.423z"/>
			</g>
			<path style="fill:#F1CEAB;" d="M117.835,112.285c-2.446-2.018-3.094,1.483-3.212,2.322c1.473-10.117-1.053-20.206-6.9-27.271
				c-5.092-6.153-12.113-9.409-20.302-9.415c-8.189,0.007-15.209,3.262-20.301,9.415c-5.769,6.971-8.299,16.885-6.951,26.866
				c-0.201-1.227-0.905-3.821-3.161-1.917c-2.888,2.438-4.204,5.503-3.669,8.629c0.472,2.761,2.363,5,4.885,6.042
				c2.522,1.043,2.675-1.472,2.858-2.497c0.555,3.602,2.238,10.899,7.181,17.406c4.917,6.473,11.542,9.898,19.159,9.905
				c7.617-0.007,14.242-3.432,19.159-9.905c4.943-6.507,6.625-13.804,7.18-17.406c0.185,1.473,0.399,3.467,2.858,2.497
				c2.459-0.97,4.412-3.281,4.885-6.042C122.039,117.788,120.602,114.567,117.835,112.285z M79.223,85.99
				c0.425-0.512,1.025-0.828,1.688-0.889h0c0.663-0.061,1.31,0.139,1.822,0.564c0.512,0.425,0.828,1.025,0.889,1.688
				c0.127,1.369-0.883,2.585-2.252,2.712c-1.371,0.127-2.585-0.884-2.712-2.252C78.597,87.15,78.798,86.502,79.223,85.99z
				 M84.393,95.671c0.127,1.369-0.884,2.585-2.252,2.712c-1.372,0.126-2.585-0.884-2.712-2.252
				c-0.127-1.369,0.884-2.585,2.252-2.712c0.078-0.007,0.155-0.011,0.232-0.011C83.185,93.408,84.274,94.38,84.393,95.671z
				 M80.771,125.238c-1.343,0.897-3.174,1.391-5.155,1.391c-3.561,0-7.163-1.665-7.579-4.857c5.053,1.919,10.077,1.922,14.951,0.008
				C82.816,123.192,82.058,124.379,80.771,125.238z M82.936,106.969c-0.663,0.061-1.31-0.139-1.822-0.564
				c-0.512-0.425-0.828-1.025-0.889-1.688c-0.062-0.663,0.139-1.31,0.564-1.822c0.425-0.512,1.025-0.828,1.688-0.889
				c0.078-0.007,0.157-0.011,0.234-0.011c0.58,0,1.137,0.2,1.588,0.575c0.512,0.425,0.828,1.025,0.889,1.688
				C85.315,105.626,84.305,106.842,82.936,106.969z M92.113,85.665c0.452-0.375,1.008-0.575,1.588-0.575
				c0.078,0,0.156,0.004,0.234,0.011c0.663,0.061,1.263,0.377,1.688,0.889s0.626,1.159,0.564,1.822
				c-0.127,1.369-1.346,2.38-2.712,2.252c-0.663-0.061-1.263-0.377-1.688-0.889c-0.425-0.512-0.626-1.159-0.564-1.822
				C91.285,86.69,91.601,86.09,92.113,85.665z M90.453,95.671L90.453,95.671c0.127-1.369,1.344-2.382,2.712-2.252
				c1.368,0.127,2.379,1.343,2.252,2.712c-0.062,0.663-0.377,1.262-0.89,1.688c-0.512,0.425-1.16,0.625-1.822,0.564
				C91.337,98.256,90.326,97.039,90.453,95.671L90.453,95.671L90.453,95.671z M89.658,104.257c0.062-0.663,0.377-1.262,0.889-1.688
				c0.452-0.375,1.008-0.575,1.588-0.575c0.078,0,0.156,0.004,0.234,0.011c0.663,0.061,1.263,0.377,1.688,0.889
				c0.425,0.512,0.626,1.159,0.565,1.822c-0.127,1.369-1.347,2.378-2.712,2.252c-0.663-0.061-1.263-0.377-1.688-0.889
				C89.797,105.567,89.596,104.92,89.658,104.257z M99.129,126.682c-1.964,0-3.771-0.498-5.088-1.403
				c-1.274-0.875-2.021-2.094-2.187-3.552c4.876,1.915,9.901,1.913,14.955-0.007C106.396,124.981,102.742,126.682,99.129,126.682z"
				/>
			<path style="fill:#F1CEAB;" d="M111.103,143.423l-0.241-0.051l-0.14,0.203c-6.182,8.949-13.838,13.306-23.406,13.322
				c-9.365-0.015-17.204-4.497-23.3-13.322l-0.14-0.203l-0.241,0.051c-1.222,0.259-7.602,1.812-13.216,7.024l-0.046,0.052
				c-3.42,4.643-5.803,12.387-6.711,21.806l-0.032,0.336l0.332,0.063c0.515,0.097,1.036,0.222,1.548,0.372l0.19,0.056l0.152-0.128
				c1.833-1.542,6.443-5.169,9.651-5.553c1.056-0.127,2.348,0.013,3.736,0.403l0.343,0.097l0.109-0.339
				c0.327-1.014,1.291-3.476,3.661-6.459c-0.805,2.983-0.833,6.346-0.797,7.841l0.005,0.213l0.186,0.103
				c3.033,1.671,5.294,4.048,6.205,6.519c1.1,2.986-0.053,6.594-1.501,9.963c31.45-9.348,42.782-25.537,48.092-41.011
				C113.459,143.816,111.694,143.548,111.103,143.423z"/>
			<path style="fill:#F1CEAB;" d="M56.401,170.804c-2.576,0.098-4.968,2.043-6.52,3.658l-0.324,0.337l0.402,0.238
				c2.688,1.594,5.201,3.865,6.896,6.232c1.778,2.482,3.053,4.824,4.108,6.824l0.261,0.495l0.353-0.434
				c4.418-5.431,4.339-8.94,3.9-10.549C64.453,173.861,59.55,170.682,56.401,170.804z"/>
			<path style="fill:#F1CEAB;" d="M124.963,174.461c-1.552-1.614-3.944-3.559-6.52-3.658c-3.155-0.12-8.052,3.057-9.076,6.8
				c-0.773,2.827,0.332,6.022,3.377,9.766l0.314,0.386l0.279-0.411c0.808-1.188,1.569-2.13,2.375-3.127
				c0.714-0.884,1.453-1.799,2.277-2.949c1.695-2.367,4.208-4.638,6.896-6.232l0.402-0.238L124.963,174.461z"/>
		</g>
		<g>
			<path style="fill:#FFFFFF;" d="M216.049,131.045v50.088h-14.364v-50.088H188.16v-12.126h41.413v12.126H216.049z"/>
			<path style="fill:#FFFFFF;" d="M286.973,126.567c5.876,5.69,9.7,13.898,9.7,23.505c0,8.302-2.985,16.79-9.7,23.319
				c-5.783,5.596-13.619,9.141-24.065,9.141c-11.659,0-19.587-4.664-24.251-9.141c-5.97-5.596-9.7-13.991-9.7-23.132
				c0-8.955,4.01-18.002,9.607-23.598c4.198-4.197,11.939-9.141,24.345-9.141C272.609,117.52,280.723,120.505,286.973,126.567z
				 M249.197,136.081c-2.705,2.612-5.503,7.182-5.503,14.084c0,5.69,1.866,10.26,5.69,13.991c4.01,3.824,8.487,5.131,13.338,5.131
				c6.343,0,10.82-2.332,13.804-5.317c2.425-2.332,5.41-6.716,5.41-13.898c0-6.435-2.612-11.193-5.41-13.991
				c-3.078-2.984-8.021-5.317-13.711-5.317C257.405,130.764,252.555,132.724,249.197,136.081z"/>
			<path style="fill:#FFFFFF;" d="M325.754,118.919c5.41,0,11.38,0.746,16.323,5.131c5.317,4.663,6.062,10.82,6.062,15.11
				c0,7.834-2.984,12.219-5.316,14.644c-4.944,5.036-11.473,5.503-15.857,5.503H318.2v21.826h-14.364v-62.214H325.754z
				 M318.2,147.554h5.13c1.959,0,5.41-0.093,7.742-2.332c1.306-1.306,2.332-3.451,2.332-6.156c0-2.612-0.932-4.757-2.332-6.063
				c-2.145-2.052-5.223-2.332-8.021-2.332h-4.85V147.554z"/>
			<path style="fill:#FFFFFF;" d="M348.167,181.133l9.98-62.214h11.939l15.483,37.216l15.484-37.216h11.939l9.981,62.214h-14.364
				l-4.944-37.123l-15.577,37.123h-5.036l-15.577-37.123l-4.944,37.123H348.167z"/>
			<path style="fill:#FFFFFF;" d="M483.961,126.567c5.876,5.69,9.7,13.898,9.7,23.505c0,8.302-2.984,16.79-9.7,23.319
				c-5.783,5.596-13.619,9.141-24.065,9.141c-11.659,0-19.587-4.664-24.251-9.141c-5.97-5.596-9.7-13.991-9.7-23.132
				c0-8.955,4.01-18.002,9.607-23.598c4.198-4.197,11.939-9.141,24.345-9.141C469.597,117.52,477.711,120.505,483.961,126.567z
				 M446.185,136.081c-2.705,2.612-5.503,7.182-5.503,14.084c0,5.69,1.866,10.26,5.69,13.991c4.01,3.824,8.488,5.131,13.338,5.131
				c6.343,0,10.82-2.332,13.804-5.317c2.425-2.332,5.41-6.716,5.41-13.898c0-6.435-2.612-11.193-5.41-13.991
				c-3.078-2.984-8.021-5.317-13.711-5.317C454.393,130.764,449.543,132.724,446.185,136.081z"/>
			<path style="fill:#FFFFFF;" d="M500.823,181.133v-62.214h12.498l33.765,40.108v-40.108h14.364v62.214h-12.498l-33.765-40.294
				v40.294H500.823z"/>
			<path style="fill:#FFFFFF;" d="M586.325,144.849l21.266-25.93h17.535l-25.184,29.474l27.143,32.739h-18.469l-22.292-27.609
				v27.609h-14.364v-62.214h14.364V144.849z"/>
			<path style="fill:#FFFFFF;" d="M661.885,134.123c-4.663-4.197-8.674-4.477-10.446-4.477c-1.958,0-4.384,0.28-6.063,2.145
				c-0.932,0.932-1.585,2.332-1.585,3.917c0,1.493,0.466,2.612,1.399,3.452c1.493,1.399,3.637,1.958,7.834,3.544l4.664,1.772
				c2.705,1.026,6.063,2.425,8.488,4.757c3.638,3.451,4.57,7.928,4.57,11.566c0,6.436-2.239,12.033-5.503,15.39
				c-5.504,5.783-13.525,6.343-17.629,6.343c-4.477,0-8.395-0.653-12.312-2.612c-3.171-1.585-6.809-4.477-9.141-6.809l7.462-10.26
				c1.585,1.586,4.104,3.731,5.783,4.757c2.425,1.492,4.944,2.238,7.835,2.238c1.866,0,4.477-0.373,6.529-2.145
				c1.213-1.026,2.239-2.705,2.239-5.036c0-2.053-0.84-3.358-2.145-4.478c-1.679-1.399-5.503-2.798-7.275-3.451l-5.131-1.772
				c-2.891-1.026-6.249-2.332-8.674-4.944c-3.265-3.451-3.731-7.834-3.731-10.82c0-5.503,1.679-10.167,5.409-13.991
				c4.384-4.477,9.607-5.69,15.391-5.69c4.29,0,11.193,0.746,18.468,6.156L661.885,134.123z"/>
		</g>
	</g>
</g>
</svg>
