<?xml version="1.0" encoding="utf-8" ?>
<svg version="1.1" xmlns="http://www.w3.org/2000/svg" xmlns:xlink="http://www.w3.org/1999/xlink" xml:space="preserve" x="0px" y="0px" viewBox="0 0 24 24" style="enable-background:new 0 0 24 24;">
	<g>
		<defs>
			<clipPath id="bar">
				<rect x="0" y="0" width="24" height="12" />
			</clipPath>
		</defs>
		<path class="st0" fill="#FFFFFF" d="M7,21H3V10h4V21z M14,10h-4v11h4V10z M21,10h-4v11h4V10z M23,22H1v2h22V22z M0,9h24L12,0L0,9z" />
		<path clip-path="url(#bar)" fill="#2C2A51" d="M7,21H3V10h4V21z M14,10h-4v11h4V10z M21,10h-4v11h4V10z M23,22H1v2h22V22z M0,9h24L12,0L0,9z" />
	</g>
</svg>