<?xml version="1.0" encoding="utf-8" ?>
<svg version="1.1" xmlns="http://www.w3.org/2000/svg" xmlns:xlink="http://www.w3.org/1999/xlink" xml:space="preserve" x="0px" y="0px" viewBox="0 0 24 24" style="enable-background:new 0 0 24 24;">
	<g>
		<defs>
			<clipPath id="value-trust">
				<rect x="0" y="0" width="24" height="12" />
			</clipPath>
		</defs>
		<path class="st0" fill="#FFFFFF" d="M20.8,18.1c-3.4-0.8-6.6-1.5-5.1-4.4C20.5,4.8,17,0,12,0C6.9,0,3.5,4.9,8.3,13.7c1.6,2.9-1.7,3.6-5.1,4.4
	C0.1,18.8,0,20.3,0,23l0,1h24l0-1C24,20.3,23.9,18.8,20.8,18.1z" />
		<path clip-path="url(#value-trust)" fill="#2C2A51" d="M20.8,18.1c-3.4-0.8-6.6-1.5-5.1-4.4C20.5,4.8,17,0,12,0C6.9,0,3.5,4.9,8.3,13.7c1.6,2.9-1.7,3.6-5.1,4.4
	C0.1,18.8,0,20.3,0,23l0,1h24l0-1C24,20.3,23.9,18.8,20.8,18.1z" />
	</g>
</svg>