<?xml version="1.0" encoding="utf-8" ?>
<svg version="1.1" xmlns="http://www.w3.org/2000/svg" xmlns:xlink="http://www.w3.org/1999/xlink" x="0px" y="0px" viewBox="0 0 24 24" style="enable-background:new 0 0 24 24;" xml:space="preserve">
	<path fill="#4A4B7E" d="M20.8,10.4c-0.7,0.5-1.5,0.8-2.4,0.8c-1.6,0-2.4-2-1.3-3.1c0.6-0.6,1.4-1,2.3-1.1c1.6-0.2,2.3-2.2,1.1-3.4S17.3,3,17,4.7
	c-0.1,0.9-0.5,1.7-1.1,2.3c-1.1,1.1-3.1,0.3-3.1-1.3c0-0.9,0.3-1.7,0.8-2.4C14.6,1.9,13.7,0,12,0c-1.7,0-2.6,1.9-1.6,3.2
	c0.5,0.7,0.8,1.5,0.8,2.4c0,1.6-2,2.4-3.1,1.3C7.5,6.3,7.1,5.5,7,4.7C6.7,3,4.7,2.3,3.5,3.5S3,6.7,4.7,7c0.9,0.1,1.7,0.5,2.3,1.1
	c1.1,1.1,0.3,3.1-1.3,3.1c-0.9,0-1.7-0.3-2.4-0.8C1.9,9.4,0,10.3,0,12c0,1.7,1.9,2.6,3.2,1.6c0.7-0.5,1.5-0.8,2.4-0.8
	c1.6,0,2.4,2,1.3,3.1c-0.6,0.6-1.4,1-2.3,1.1c-1.6,0.2-2.3,2.2-1.1,3.4S6.7,21,7,19.3c0.1-0.9,0.5-1.7,1.1-2.3
	c1.1-1.1,3.1-0.3,3.1,1.3c0,0.9-0.3,1.7-0.8,2.4c-1,1.3-0.1,3.2,1.6,3.2c1.7,0,2.6-1.9,1.6-3.2c-0.5-0.7-0.8-1.5-0.8-2.4
	c0-1.6,2-2.4,3.1-1.3c0.6,0.6,1,1.4,1.1,2.3c0.2,1.6,2.2,2.3,3.4,1.1c1.2-1.2,0.5-3.2-1.1-3.4c-0.9-0.1-1.6-0.5-2.3-1.1
	c-1.1-1.1-0.3-3.1,1.3-3.1c0.9,0,1.7,0.3,2.4,0.8c1.3,1,3.2,0.1,3.2-1.6C24,10.3,22.1,9.4,20.8,10.4z M10,14.7c-0.5,0-1-0.4-1-1
	s0.4-1,1-1s1,0.4,1,1S10.6,14.7,10,14.7z M11.3,11.5c-0.9,0-1.6-0.7-1.6-1.6s0.7-1.6,1.6-1.6s1.6,0.7,1.6,1.6S12.2,11.5,11.3,11.5z
	 M14.2,14.5c-0.7,0-1.3-0.6-1.3-1.3s0.6-1.3,1.3-1.3s1.3,0.6,1.3,1.3S15,14.5,14.2,14.5z" />
</svg>