<?xml version="1.0" standalone="no"?>
<!DOCTYPE svg PUBLIC "-//W3C//DTD SVG 20010904//EN"
 "http://www.w3.org/TR/2001/REC-SVG-20010904/DTD/svg10.dtd">
<svg version="1.0" xmlns="http://www.w3.org/2000/svg"
 width="512.000000pt" height="512.000000pt" viewBox="0 0 512.000000 512.000000"
 preserveAspectRatio="xMidYMid meet">
<metadata>
Created by potrace 1.11, written by Peter Selinger 2001-2013
</metadata>
<g transform="translate(0.000000,512.000000) scale(0.100000,-0.100000)"
fill="#000000" stroke="none">
<path d="M2485 5116 c-5 -2 -34 -12 -64 -21 -108 -33 -192 -109 -249 -224 -35
-71 -37 -80 -37 -175 0 -125 11 -163 77 -262 74 -113 94 -152 127 -251 76
-227 55 -413 -59 -530 -41 -41 -115 -91 -148 -98 -9 -2 -33 -9 -52 -14 -70
-22 -169 -11 -250 27 -68 32 -143 105 -207 202 -77 117 -110 200 -138 343 -14
76 -49 169 -77 203 -178 220 -472 241 -663 48 -169 -172 -158 -454 24 -622 55
-50 145 -89 261 -113 58 -11 109 -25 115 -30 5 -5 15 -9 22 -9 39 0 183 -85
270 -158 134 -115 184 -276 132 -428 -68 -203 -252 -300 -489 -259 -25 4 -55
9 -68 11 -68 12 -203 73 -296 133 -116 76 -195 104 -288 102 -244 -3 -446
-219 -425 -454 9 -104 23 -145 70 -216 81 -120 223 -194 368 -192 61 1 169 31
210 58 140 95 174 113 267 147 75 27 94 31 177 43 230 33 402 -61 471 -255 50
-143 15 -294 -95 -403 -120 -118 -279 -199 -463 -234 -225 -42 -367 -193 -383
-408 -14 -186 115 -374 300 -435 63 -21 171 -22 241 -2 171 47 283 176 319
367 59 316 259 561 473 580 179 16 347 -92 408 -263 24 -69 22 -209 -6 -320
-28 -109 -65 -193 -130 -289 -80 -119 -93 -155 -94 -265 -1 -113 4 -140 37
-205 76 -150 204 -235 363 -241 100 -4 179 16 253 63 73 47 114 93 157 179 29
58 37 86 41 153 8 115 -14 188 -90 305 -74 113 -113 198 -137 301 -51 218 -18
374 103 480 162 143 386 137 538 -14 117 -118 199 -280 234 -463 37 -200 160
-335 341 -373 145 -30 283 8 386 108 176 172 179 445 6 618 -62 62 -150 104
-268 127 -209 42 -405 156 -503 292 -32 44 -63 140 -66 202 -7 155 114 337
252 380 180 55 418 5 625 -134 120 -81 152 -92 272 -92 115 -1 169 13 246 65
194 131 252 393 129 584 -48 76 -98 120 -184 163 -71 35 -80 37 -170 37 -132
0 -174 -13 -278 -83 -194 -131 -407 -190 -578 -159 -234 42 -378 308 -284 528
27 64 29 66 96 134 113 117 268 195 455 230 143 26 240 87 312 194 84 125 94
289 26 426 -108 218 -358 303 -575 195 -93 -46 -174 -130 -208 -217 -9 -23
-25 -84 -35 -135 -28 -136 -96 -291 -159 -364 -10 -12 -34 -40 -53 -63 -69
-83 -188 -141 -290 -141 -134 0 -272 77 -342 191 -97 159 -54 451 101 683 75
114 93 159 99 258 4 72 1 98 -18 157 -45 137 -173 261 -295 286 -38 8 -177 16
-190 11z m60 -1824 c75 -36 131 -91 164 -162 35 -74 37 -201 4 -272 -30 -66
-93 -130 -160 -163 -50 -25 -70 -29 -143 -30 -73 0 -93 4 -142 28 -68 33 -137
106 -165 175 -30 72 -27 188 9 262 59 124 162 189 303 190 57 0 81 -5 130 -28z
m555 -713 c96 -21 178 -102 204 -201 44 -171 -74 -335 -250 -346 -261 -17
-399 291 -214 476 18 18 45 39 60 44 101 42 124 45 200 27z m-868 -190 c23
-12 47 -26 53 -33 82 -85 85 -222 7 -302 -58 -58 -155 -80 -225 -51 -174 74
-182 311 -13 388 55 25 127 24 178 -2z"/>
</g>
</svg>
